<svg width="32" height="32" viewBox="0 0 32 32" fill="none" xmlns="http://www.w3.org/2000/svg">
  <defs>
    <linearGradient id="bg-grad" x1="0%" y1="0%" x2="100%" y2="100%">
      <stop offset="0%" style="stop-color:#833AB4;stop-opacity:1" />
      <stop offset="50%" style="stop-color:#C13584;stop-opacity:1" />
      <stop offset="100%" style="stop-color:#E1306C;stop-opacity:1" />
    </linearGradient>
  </defs>

  <!-- Rounded background -->
  <rect width="32" height="32" rx="8" fill="url(#bg-grad)" />

  <!-- Growing sprout/seedling with a heart-shaped leaf -->
  <!-- Stem -->
  <path d="M16 24 C16 24 16 18 16 15" stroke="white" stroke-width="2" stroke-linecap="round" opacity="0.95"/>
  <!-- Left leaf curving out -->
  <path d="M16 17 C14 16 10 15 10 12 C10 9 13 8 16 11" fill="white" opacity="0.9"/>
  <!-- Right leaf curving out -->
  <path d="M16 14 C18 13 22 12.5 22 10 C22 7.5 19 7 16 9.5" fill="white" opacity="0.9"/>
  <!-- Small root detail -->
  <path d="M16 24 C14.5 25 13 25.5 12 25" stroke="white" stroke-width="1.2" stroke-linecap="round" opacity="0.5"/>
  <path d="M16 24 C17.5 25 19 25.5 20 25" stroke="white" stroke-width="1.2" stroke-linecap="round" opacity="0.5"/>
</svg>
